<?xml version="1.0" encoding="utf-8"?>
<!-- Generator: Adobe Illustrator 26.0.1, SVG Export Plug-In . SVG Version: 6.00 Build 0)  -->
<svg version="1.1" id="Layer_1" xmlns="http://www.w3.org/2000/svg" xmlns:xlink="http://www.w3.org/1999/xlink" x="0px" y="0px"
	 viewBox="0 0 76.3 119.7" style="enable-background:new 0 0 76.3 119.7;" xml:space="preserve">
<style type="text/css">
	.st0{fill:#103D22;}
</style>
<g id="Layer_2_00000127766375803108188950000015787054993026852273_">
	<g id="Layer_1-2">
		<path class="st0" d="M19.8,63.2V27.7c-0.3-4.9,3.4-9.1,8.3-9.4c4.9-0.3,9.1,3.4,9.4,8.3c0,0.1,0,0.2,0,0.3v20.6
			c4.5-2.2,9.9-0.4,12.1,4.1c0.4,0.8,0.7,1.6,0.8,2.4c4.4-2.3,9.8-0.6,12,3.8c0,0,0,0,0,0l0,0c0.4,0.8,0.7,1.6,0.8,2.5
			c1-0.3,2-0.6,3-0.8c4.8-0.6,9.3,2.7,9.9,7.6c0,0,0,0,0,0c0.1,0.4,0.1,0.9,0.1,1.3V82c0,5,0.1,10.1,0,15.1
			c-0.1,8.7-4,15.3-11.5,19.7c-3.2,1.9-6.8,2.8-10.5,2.8c-6.7,0-13.4,0.1-20.1,0c-6.9-0.1-13.2-3.4-17.2-9c-2-2.7-3.3-5.8-4-9
			c-1.1-4.5-2.4-9-3.6-13.4C7.7,82.5,5.8,77,3.5,71.7c-0.7-1.7-1.4-3.3-2.3-4.8c-2.4-4.2-1-9.7,3.3-12.1c4.1-2.4,9.3-1.1,11.9,2.9
			C17.4,59.4,18.5,61.2,19.8,63.2z M24.6,54.7L24.6,54.7v27.2c0.1,1.4-0.9,2.6-2.3,2.7h-0.2c-1.3,0-2.4-1.1-2.4-2.5c0,0,0,0,0,0l0,0
			v-5.2c0-0.4-0.1-0.9-0.2-1.3c-1.7-5.5-4.2-10.7-7.3-15.4c-1-1.5-2.9-2.2-4.7-1.6c-1.8,0.6-3,2.4-2.7,4.2c0.2,1,0.6,1.9,1.2,2.8
			c3,5.9,5.3,12.1,7.1,18.5c1.5,5.1,2.9,10.2,4.3,15.3c0.4,2.2,1.2,4.4,2.2,6.4c3.5,5.8,8.6,8.9,15.5,9c6.4,0,12.7,0,19,0
			c9.4-0.1,17-7.5,17.3-16.9c0.1-5,0-10,0-14.9V68.4c0-2.2-1.8-4-4-4s-4,1.8-4,4v6c0,1.3-1,2.4-2.3,2.4c0,0,0,0,0,0l0,0
			c-0.2,0-0.3,0-0.5,0c-1.2-0.2-2.1-1.3-2-2.5V61.8c0-2.2-1.8-4-4.1-4c-2.2,0-4,1.8-4,4.1v8.3c0,1.3-1,2.4-2.3,2.4c0,0,0,0,0,0l0,0
			c-1.4,0-2.5-1.1-2.5-2.4c0-0.1,0-0.2,0-0.3V55.7c0.1-1.5-0.6-2.9-1.8-3.7c-1.3-0.9-3-0.9-4.3,0c-1.3,0.7-2.1,2.1-2,3.6v14.2
			c0,1.3-1,2.4-2.3,2.4h-0.1c-1.3,0-2.4-1.1-2.4-2.4c0,0,0,0,0,0V27.3c-0.1-2.2-2-3.9-4.2-3.8s-3.9,2-3.8,4.2v0.2
			C24.6,36.8,24.6,45.8,24.6,54.7z"/>
		<path class="st0" d="M0.6,27.8c0-6.7,2.5-13.1,6.9-18.1c4.2-4.9,10-8.2,16.4-9.3c4.2-0.7,8.5-0.5,12.5,0.8
			c0.6,0.2,1.1,0.6,1.6,0.8c0.8,0.3,1.6,0.4,2.3,0.7c7.2,3.3,12.6,9.5,14.9,17.1c2,6.3,1.6,13.1-1,19.2c-1,2.3-2.3,4.4-3.8,6.4
			c-0.6,0.9-1.9,1.2-2.9,0.5c0,0,0,0,0,0l0,0l-0.1-0.1c-0.9-0.6-1.2-1.8-0.6-2.8l0,0l0.2-0.2c1.5-2,2.8-4.1,3.7-6.5
			c1.6-4.3,2-9,0.9-13.4c-1.2-5.7-4.5-10.8-9.3-14.2c-5.4-4-12.4-5.5-19-3.9C16.7,6.3,11,10.6,7.8,16.6C3,25.4,4.2,36.3,10.9,43.8
			c1.4,1.7,3.2,3.2,5.1,4.3c0.9,0.4,1.4,1.4,1.2,2.4c-0.1,0.8-0.7,1.5-1.5,1.7c-0.7,0.1-1.4,0-2-0.5c-2.9-1.8-5.4-4.1-7.4-6.8
			C2.6,39.9,0.6,33.9,0.6,27.8z"/>
		<path class="st0" d="M28.7,9.7c8.8,0,16.4,6.2,18.3,14.8c0.9,4.2,0.4,8.5-1.6,12.3c-0.5,1.2-1.8,1.7-2.9,1.3L42.2,38
			c-1.1-0.5-1.7-1.8-1.2-2.9c0,0,0,0,0-0.1l0,0c0-0.1,0.1-0.2,0.1-0.2c3.4-6.8,0.9-15.1-5.8-18.8c-2.8-1.6-6.1-2.1-9.3-1.5
			c-5.2,1-9.5,4.9-11,10c-0.8,2.6-0.7,5.4,0.1,8c0.3,0.8,0.6,1.5,0.9,2.3c0.5,1.1,0.2,2.3-0.8,3c-1,0.7-2.3,0.5-3-0.5
			c-0.1-0.1-0.1-0.2-0.2-0.3c-0.7-1.4-1.3-2.9-1.6-4.4c-1.6-7,0.9-14.3,6.5-18.8C20.3,11.1,24.4,9.6,28.7,9.7z"/>
	</g>
</g>
</svg>
